<svg aria-hidden="true" style="position: absolute; width: 0; height: 0; overflow: hidden;" version="1.1" xmlns="http://www.w3.org/2000/svg" xmlns:xlink="http://www.w3.org/1999/xlink">
<defs>
<symbol id="icon-antenna" viewBox="0 0 32 32">
<path fill="#212121" style="fill: var(--color1, #212121)" d="M30.773 22.098l-8.443-8.505 0.937-4.615c0.225 0.090 0.485 0.143 0.758 0.146h0.007c1.192 0.014 2.17-0.941 2.184-2.133s-0.941-2.17-2.133-2.184-2.17 0.941-2.184 2.133c-0 0.008-0 0.017-0 0.026 0 0.259 0.046 0.508 0.13 0.739l-0.005-0.015-4.96 0.605-8.091-8.133c-0.096-0.098-0.229-0.159-0.376-0.16h-0c-0.146 0.001-0.278 0.060-0.373 0.155l-1.513 1.504c-0.208 0.208-0.208 0.546 0 0.754l0.814 0.826c-3.153 5.798-2.129 12.978 2.519 17.663 0.043 0.041 0.092 0.074 0.146 0.098-0.032 0.164-0.051 0.353-0.052 0.546v6.188h-6.4c-1.472 0.002-2.665 1.195-2.667 2.667v1.067c0 0.295 0.239 0.533 0.533 0.533h24.533c0.295 0 0.533-0.239 0.533-0.533v-1.067c-0.002-1.472-1.195-2.665-2.667-2.667h-6.4v-2.742c0.915 0.201 1.968 0.317 3.047 0.32h0.002c2.58-0.003 5.005-0.663 7.117-1.822l-0.077 0.039 0.818 0.823c0.099 0.101 0.235 0.159 0.377 0.16 0.146-0.001 0.278-0.060 0.373-0.155l1.513-1.504c0.208-0.208 0.208-0.546 0-0.754zM23.28 6.233c0.418-0.415 1.093-0.414 1.508 0.004s0.414 1.093-0.004 1.508c-0.193 0.192-0.459 0.31-0.752 0.31-0 0-0 0-0 0h-0.003c-0.589-0.003-1.064-0.483-1.061-1.072 0.002-0.294 0.122-0.559 0.314-0.751l0-0zM22.024 9.738l-0.598 2.946-1.175-1.182zM21.419 8.836l-1.92 1.909-1.485-1.493zM24.004 28.8c0.884 0 1.6 0.716 1.6 1.6v0.533h-23.467v-0.533c0-0.884 0.716-1.6 1.6-1.6zM16.537 26.667v1.067h-5.333v-1.067zM11.204 25.6v-4.053c0-1.294 1.196-2.347 2.667-2.347s2.667 1.053 2.667 2.347v4.053zM17.604 23.904v-2.357c0-1.882-1.675-3.413-3.733-3.413-0.017-0-0.038-0-0.058-0-1.353 0-2.54 0.707-3.213 1.771l-0.009 0.016c-4.058-4.274-4.971-10.645-2.279-15.887l18.602 18.708c-1.823 0.947-3.98 1.502-6.266 1.502-1.079 0-2.128-0.124-3.136-0.357l0.093 0.018zM28.893 23.22l-21.057-21.181 0.755-0.752 7.935 7.98c0.004 0 0.006 0.007 0.010 0.010l13.115 13.191z"></path>
<path fill="#2196f3" style="fill: var(--color2, #2196f3)" d="M13.876 20.267h-0.005c-0.884-0.001-1.601 0.714-1.602 1.598s0.714 1.601 1.598 1.602h0.005c0.884 0.001 1.601-0.714 1.602-1.598s-0.714-1.601-1.598-1.602zM14.249 22.245c-0.096 0.096-0.229 0.155-0.376 0.155-0.001 0-0.001 0-0.002 0h0c-0.295-0.002-0.532-0.242-0.531-0.536 0.002-0.292 0.238-0.529 0.53-0.531h0c0.295 0.002 0.532 0.241 0.53 0.536-0.001 0.147-0.061 0.279-0.157 0.375l-0 0z"></path>
</symbol>
<symbol id="icon-astronaut" viewBox="0 0 32 32">
<path fill="#2196f3" style="fill: var(--color2, #2196f3)" d="M31.974 4.524c-0.064-0.191-0.227-0.332-0.427-0.362l-0.003-0-1.91-0.278-0.855-1.731c-0.179-0.365-0.777-0.365-0.956 0l-0.855 1.731-1.91 0.278c-0.203 0.030-0.367 0.171-0.43 0.359l-0.001 0.004c-0.062 0.193-0.011 0.405 0.135 0.547l1.383 1.348-0.326 1.903c-0.034 0.2 0.048 0.402 0.212 0.522 0.087 0.064 0.195 0.102 0.313 0.102 0.091 0 0.177-0.023 0.252-0.063l-0.003 0.001 1.709-0.899 1.709 0.899c0.078 0.041 0.164 0.061 0.249 0.061 0.11 0 0.221-0.034 0.314-0.102 0.134-0.098 0.22-0.254 0.22-0.431 0-0.032-0.003-0.063-0.008-0.094l0 0.003-0.326-1.903 1.383-1.348c0.099-0.097 0.161-0.232 0.161-0.382 0-0.059-0.009-0.115-0.027-0.168l0.001 0.004zM29.511 5.851c-0.099 0.097-0.161 0.232-0.161 0.382 0 0.032 0.003 0.063 0.008 0.094l-0-0.003 0.191 1.114-1-0.526c-0.072-0.039-0.157-0.061-0.248-0.061-0 0-0 0-0.001 0h0c-0.085 0-0.17 0.020-0.249 0.061l-1.001 0.526 0.191-1.114c0.005-0.027 0.008-0.058 0.008-0.090 0-0.15-0.061-0.285-0.161-0.382l-0.81-0.789 1.119-0.163c0.177-0.026 0.324-0.137 0.4-0.289l0.001-0.003 0.5-1.013 0.5 1.013c0.078 0.157 0.228 0.267 0.402 0.292l1.119 0.163zM26.134 20.522h-1.067v1.067h1.067zM26.134 22.656h-1.067v1.067h1.067zM27.2 21.589h-1.067v1.067h1.067zM25.067 21.589h-1.067v1.067h1.067zM22.4 26.389h-1.067v1.067h1.067zM22.4 28.522h-1.067v1.067h1.067zM23.467 27.456h-1.067v1.067h1.067zM21.333 27.456h-1.067v1.067h1.067zM16 24.256h-1.067v1.067h1.067zM16 26.389h-1.067v1.067h1.067zM17.067 25.322h-1.067v1.067h1.067zM14.933 25.322h-1.067v1.067h1.067zM5.867 6.122h-1.067v1.067h1.067zM5.867 8.255h-1.067v1.067h1.067z"></path>
<path fill="#2196f3" style="fill: var(--color2, #2196f3)" d="M6.933 7.189h-1.067v1.067h1.067zM4.8 7.189h-1.067v1.067h1.067z"></path>
<path fill="#212121" style="fill: var(--color1, #212121)" d="M24.715 14.159c-0.287-0.388-0.709-0.637-1.188-0.705-0.481-0.068-0.956 0.058-1.34 0.352l-1.252 0.96-1.898 1.417-1.358-0.541c2.421-1.086 4.114-3.508 4.114-6.32 0-3.823-3.123-6.933-6.961-6.933s-6.961 3.11-6.961 6.933c0 1.386 0.414 2.674 1.12 3.758l-2.769-0.024c-0.009 0-0.015 0.004-0.023 0.005-0.056 0.003-0.109 0.014-0.159 0.032l0.004-0.001c-0.013 0.005-0.026 0.008-0.038 0.013-0.006 0.003-0.013 0.003-0.019 0.006l-3.233 1.596c-0.001 0-0.001 0-0.001 0.001l-1.893 0.911c-0.024 0.011-0.045 0.023-0.064 0.036l0.001-0.001c-0.755 0.502-1.012 1.489-0.598 2.295 0.22 0.429 0.595 0.745 1.056 0.889 0.161 0.052 0.347 0.083 0.539 0.083h0c0.29 0 0.577-0.071 0.839-0.211l1.388-0.738 2.264-1.169 1.357-0.008-5.442 5.416c-0.001 0.001-0.001 0.001-0.002 0.001l-1.339 1.333c-0.316 0.315-0.49 0.732-0.49 1.178s0.174 0.863 0.49 1.179c0.325 0.323 0.752 0.485 1.179 0.485s0.854-0.162 1.18-0.485l1.314-1.309 1.741-1.3 0.901 0.897-1.762 1.754c-0 0.001-0.001 0.001-0.002 0.001l-1.339 1.333c-0.316 0.315-0.49 0.732-0.49 1.178s0.174 0.863 0.49 1.179c0.325 0.323 0.753 0.485 1.18 0.485s0.855-0.162 1.18-0.485l3.482-3.467c0.001-0.001 0.001-0.001 0.001-0.002l1.010-1-0.004-0.004c0.006-0.006 0.015-0.009 0.022-0.015l5.166-5.658 3.471 0.494c0.022 0.003 0.047 0.005 0.073 0.005 0.001 0 0.001 0 0.002 0h-0c0.065 0 0.127-0.015 0.187-0.038 0.018-0.006 0.033-0.015 0.050-0.023 0.019-0.010 0.039-0.015 0.058-0.027l3.213-2.133c0.012-0.008 0.018-0.021 0.029-0.029 0.013-0.010 0.029-0.014 0.041-0.026l1.271-1.191c0.662-0.62 0.753-1.635 0.212-2.362zM2.13 17.77c-0.173 0.093-0.37 0.111-0.558 0.052-0.187-0.058-0.338-0.186-0.427-0.358-0.161-0.314-0.068-0.695 0.214-0.902l1.314-0.632 0.449 1.312zM5.628 15.942l-1.548 0.8-0.439-1.283 2.027-1.001zM20.727 9.322c0 0.918-0.219 1.785-0.599 2.559l-4.181-1.899c-0.044-0.573-0.341-1.075-0.788-1.388l1.464-4.86c2.378 0.756 4.105 2.974 4.105 5.588zM8.938 9.322c0-3.235 2.644-5.867 5.894-5.867 0.253 0 0.5 0.021 0.745 0.052l-1.432 4.754c-0.019-0.001-0.037-0.006-0.057-0.006-1.033 0-1.873 0.837-1.873 1.867s0.84 1.867 1.873 1.867c0.694 0 1.294-0.383 1.618-0.945l3.862 1.755c-1.075 1.446-2.795 2.39-4.737 2.39-3.25 0-5.894-2.632-5.894-5.867zM14.894 10.122c0 0.441-0.362 0.8-0.806 0.8s-0.806-0.359-0.806-0.8 0.362-0.8 0.806-0.8 0.806 0.359 0.806 0.8zM2.465 25.146c-0.236 0.234-0.619 0.234-0.854 0.001-0.114-0.114-0.176-0.263-0.176-0.423s0.062-0.309 0.176-0.421l0.962-0.958 0.851 0.848zM5.679 28.88c-0.236 0.234-0.619 0.235-0.855 0.001-0.114-0.114-0.176-0.263-0.176-0.423s0.062-0.309 0.176-0.421l0.963-0.959 0.852 0.848zM9.16 25.411c-0.001 0-0.001 0-0.002 0.001l-1.765 1.76-0.852-0.848 1.763-1.756c0.001-0.001 0.001-0.001 0.002-0.001 0.040-0.040 0.065-0.088 0.090-0.135 0.007-0.014 0.020-0.026 0.026-0.040 0.017-0.041 0.019-0.085 0.026-0.129 0.003-0.025 0.014-0.047 0.014-0.073 0-0.036-0.013-0.070-0.020-0.106-0.006-0.032-0.006-0.065-0.019-0.095-0.020-0.050-0.055-0.094-0.091-0.138-0.010-0.012-0.014-0.027-0.025-0.038h-0.001c-0.001-0-0.001-0.002-0.001-0.002l-1.607-1.6c-0.017-0.017-0.039-0.024-0.058-0.038-0.028-0.022-0.055-0.042-0.087-0.058-0.030-0.015-0.061-0.024-0.093-0.033-0.034-0.010-0.067-0.017-0.103-0.020-0.033-0.002-0.063 0.001-0.095 0.005-0.036 0.004-0.069 0.009-0.104 0.020-0.034 0.011-0.063 0.027-0.094 0.045-0.020 0.011-0.042 0.015-0.061 0.029l-1.773 1.324-0.901-0.897 2.399-2.386 4.361 4.289zM15.979 18.394c-0.015-0.002-0.030 0.004-0.045 0.003-0.008-0-0.017-0.001-0.026-0.001-0.031 0-0.062 0.003-0.092 0.008l0.003-0c-0.030 0.005-0.059 0.011-0.088 0.021-0.034 0.012-0.065 0.028-0.097 0.047s-0.059 0.039-0.084 0.062l0-0c-0.013 0.011-0.028 0.017-0.040 0.029l-4.698 5.146-4.328-4.257 2.833-2.818c0.209-0.208 0.21-0.546 0.002-0.755-0.105-0.105-0.243-0.157-0.381-0.156v-0.001l-2.219 0.013 0.028-1.607 3.104 0.027c1.265 1.294 3.029 2.101 4.981 2.101 0.437 0 0.864-0.045 1.279-0.123 0.040 0.032 0.079 0.065 0.13 0.085l2.41 0.96 0.331 1.644zM20.020 18.572l-0.313-1.558 1.446-1.080 0.947 1.257zM23.774 15.741l-0.838 0.785-0.931-1.236 0.831-0.637c0.155-0.119 0.351-0.168 0.543-0.143 0.193 0.027 0.364 0.128 0.48 0.284 0.217 0.292 0.18 0.699-0.085 0.947z"></path>
<path fill="#212121" style="fill: var(--color1, #212121)" d="M13.602 18.544l-2.143-2.133c-0.207-0.207-0.545-0.207-0.753 0l-2.142 2.133c-0.097 0.097-0.157 0.23-0.157 0.378v0c0 0.142 0.056 0.278 0.157 0.378l2.142 2.133c0.104 0.103 0.241 0.155 0.377 0.155s0.273-0.052 0.376-0.155l2.143-2.133c0.097-0.097 0.157-0.23 0.157-0.378v-0c0-0.142-0.057-0.278-0.157-0.378zM11.083 20.303l-1.387-1.381 1.387-1.381 1.387 1.381zM17.164 5.071l-0.258 1.036c0.071 0.018 1.738 0.452 1.738 2.149h1.067c-0-2.017-1.666-2.965-2.547-3.185zM19.711 9.322h-1.067v1.067h1.067z"></path>
</symbol>
<symbol id="icon-brand" viewBox="0 0 44 32">
<path  d="M3.309 26.413c0.17 0.192 0.26 0.433 0.255 0.68 0.001 0.016 0.001 0.034 0.001 0.052 0 0.152-0.034 0.296-0.095 0.424l0.003-0.006c-0.068 0.149-0.172 0.281-0.304 0.388-0.329 0.228-0.737 0.339-1.149 0.314h-2.020v-4.307h1.979c0.391-0.024 0.778 0.077 1.096 0.286 0.128 0.098 0.229 0.222 0.296 0.362 0.057 0.115 0.090 0.251 0.090 0.394 0 0.018-0.001 0.035-0.002 0.053l0-0.002c0.012 0.238-0.070 0.471-0.23 0.659-0.154 0.171-0.366 0.29-0.602 0.337 0.268 0.045 0.51 0.175 0.683 0.368zM0.94 25.763h0.846c0.192 0.013 0.383-0.038 0.538-0.143 0.062-0.051 0.111-0.115 0.143-0.188l0.001-0.003c0.025-0.055 0.039-0.12 0.039-0.188 0-0.015-0.001-0.029-0.002-0.044l0 0.002c0.001-0.011 0.001-0.024 0.001-0.037 0-0.069-0.014-0.135-0.041-0.195l0.001 0.003c-0.033-0.076-0.081-0.14-0.141-0.191l-0.001-0.001c-0.159-0.108-0.356-0.16-0.554-0.145h-0.832zM2.406 27.414c0.066-0.052 0.119-0.118 0.154-0.194l0.001-0.003c0.029-0.061 0.045-0.132 0.045-0.207 0-0.012-0-0.024-0.001-0.035l0 0.002c0.001-0.009 0.001-0.020 0.001-0.031 0-0.077-0.017-0.15-0.048-0.215l0.001 0.003c-0.038-0.080-0.092-0.146-0.157-0.198l-0.001-0.001c-0.165-0.112-0.369-0.167-0.574-0.156h-0.887v1.185h0.898c0.202 0.011 0.402-0.042 0.568-0.149zM7.354 28.265l-1.101-1.683h-0.414v1.683h-0.947v-4.307h1.792c0.452-0.029 0.899 0.102 1.248 0.366 0.251 0.234 0.402 0.542 0.426 0.869s-0.079 0.651-0.293 0.914c-0.221 0.232-0.523 0.387-0.855 0.438l1.172 1.721zM5.839 25.994h0.774q0.807 0 0.807-0.652c0.001-0.011 0.001-0.023 0.001-0.036 0-0.081-0.016-0.158-0.046-0.229l0.001 0.004c-0.037-0.087-0.089-0.162-0.154-0.223l-0-0c-0.17-0.129-0.389-0.192-0.609-0.175h-0.784zM12.529 27.398h-1.887l-0.333 0.867h-0.993l1.733-4.259h1.073l1.726 4.259h-0.993zM12.276 26.745l-0.689-1.818-0.689 1.818zM19.007 28.265h-0.94l-2.107-2.929v2.929h-0.938v-4.307h0.938l2.107 2.946v-2.946h0.94zM24.37 27.234c-0.194 0.325-0.49 0.59-0.85 0.76-0.409 0.189-0.863 0.282-1.321 0.271h-1.673v-4.307h1.673c0.457-0.011 0.911 0.080 1.321 0.265 0.36 0.166 0.656 0.428 0.85 0.751 0.193 0.35 0.294 0.737 0.294 1.13s-0.101 0.78-0.294 1.13zM23.295 27.13c0.268-0.286 0.416-0.651 0.416-1.028s-0.147-0.742-0.416-1.028c-0.324-0.259-0.747-0.391-1.177-0.366h-0.653v2.788h0.653c0.43 0.025 0.852-0.107 1.177-0.366zM13.117 0s12.131 4.193 11.874 10.262v10.264s-12.122-4.196-11.869-10.264zM35.798 18.123c2.291-1.444 4.941-2.338 7.708-2.601v-3.213c-3.187 1.125-5.891 3.164-7.708 5.814z"></path>
<path  d="M34.422 19.091c1.875-3.457 5.126-6.125 9.084-7.455v-9.258s-17.277 5.974-16.911 14.615v14.613s0.77-0.267 1.981-0.768c0-0.467 0-0.938 0.055-1.412 0.358-4.012 2.441-7.729 5.791-10.335z"></path>
<path  d="M32.779 24.519c0.101-1.105 0.315-2.121 0.632-3.091l-0.028 0.099c-2.086 2.25-3.35 5.043-3.612 7.985-0.025 0.278-0.039 0.555-0.046 0.842 0.981-0.431 2.123-0.97 3.323-1.603-0.207-0.897-0.325-1.927-0.325-2.985 0-0.439 0.020-0.873 0.060-1.301l-0.004 0.055zM33.466 24.572c-0.034 0.355-0.053 0.768-0.053 1.186 0 0.937 0.097 1.851 0.282 2.732l-0.015-0.086c4.72-2.586 10.024-6.582 9.819-11.411v-0.421c-3.372 0.345-6.528 1.695-8.981 3.842-0.574 1.33-0.929 2.732-1.052 4.158z"></path>
</symbol>
<symbol id="icon-clock" viewBox="0 0 32 32">
<path fill="#212121" style="fill: var(--color1, #212121)" d="M31.297 15.301c-0.002-8.452-6.855-15.303-15.308-15.301s-15.303 6.855-15.301 15.308c0.001 6.658 4.307 12.551 10.649 14.576 0.061 0.019 0.124 0.029 0.187 0.029 0.126-0 0.245-0.035 0.346-0.095l-0.003 0.002c0.134-0.080 0.234-0.204 0.282-0.352l0.001-0.005 3.865-12.25c1.057-0.005 1.909-0.866 1.903-1.923s-0.866-1.909-1.923-1.903c-0.299 0.001-0.581 0.072-0.831 0.196l0.011-0.005-5.106-5.107c-0.253-0.245-0.657-0.238-0.902 0.016-0.239 0.247-0.239 0.639 0 0.886l5.103 5.109c-0.392 0.799-0.168 1.764 0.536 2.309l-3.683 11.673c-7.278-2.681-11.004-10.754-8.323-18.032s10.754-11.004 18.032-8.323 11.004 10.754 8.323 18.032c-1.345 3.581-4.003 6.406-7.374 7.938l-0.088 0.036-0.398-1.874c-0.073-0.344-0.411-0.565-0.756-0.492-0.114 0.025-0.213 0.077-0.293 0.149l0.001-0.001-3.837 3.426c-0.263 0.234-0.287 0.637-0.052 0.9 0.076 0.085 0.174 0.149 0.283 0.184l4.899 1.563c0.335 0.108 0.694-0.077 0.802-0.412 0.019-0.058 0.031-0.126 0.031-0.195 0-0.047-0.005-0.092-0.015-0.136l0.001 0.004-0.391-1.839c5.664-2.388 9.342-7.942 9.329-14.089zM15.992 14.664c0.352 0 0.638 0.286 0.638 0.638s-0.286 0.638-0.638 0.638c-0.352 0-0.638-0.285-0.638-0.638s0.285-0.638 0.638-0.638zM18.093 29.528l2.184-1.948 0.603 2.84z"></path>
<path fill="#2196f3" style="fill: var(--color2, #2196f3)" d="M15.354 3.185v1.275c0 0.352 0.285 0.638 0.638 0.638s0.638-0.285 0.638-0.638v-1.275c0-0.352-0.286-0.638-0.638-0.638s-0.638 0.286-0.638 0.638zM3.876 14.664c-0.352 0-0.638 0.286-0.638 0.638s0.285 0.638 0.638 0.638h1.275c0.352 0 0.638-0.285 0.638-0.638s-0.285-0.638-0.638-0.638zM28.108 15.939c0.352 0 0.638-0.285 0.638-0.638s-0.285-0.638-0.638-0.638h-1.275c-0.352 0-0.638 0.286-0.638 0.638s0.286 0.638 0.638 0.638z"></path>
</symbol>
<symbol id="icon-company" viewBox="0 0 34 32">
<path  d="M5.125 30.782c0.013 0 0.025 0.003 0.036 0.007l-0.001-0c0.011 0.004 0.021 0.011 0.029 0.018l-0-0 0.166 0.159c-0.129 0.129-0.288 0.231-0.467 0.302-0.184 0.069-0.398 0.109-0.62 0.109-0.015 0-0.030-0-0.045-0.001l0.002 0c-0.010 0-0.021 0-0.033 0-0.212 0-0.414-0.037-0.602-0.105l0.012 0.004c-0.178-0.065-0.338-0.162-0.47-0.285-0.134-0.128-0.237-0.277-0.303-0.44s-0.106-0.351-0.106-0.548c0-0.006 0-0.012 0-0.018v0.001c-0-0.006-0-0.012-0-0.019 0-0.198 0.042-0.387 0.118-0.557l-0.003 0.009c0.073-0.164 0.182-0.314 0.322-0.44 0.142-0.124 0.312-0.222 0.498-0.287 0.185-0.064 0.399-0.101 0.621-0.101 0.007 0 0.015 0 0.022 0h-0.001c0.011-0 0.025-0 0.038-0 0.2 0 0.392 0.034 0.57 0.096l-0.012-0.004c0.171 0.065 0.319 0.151 0.45 0.257l-0.003-0.002-0.139 0.17c-0.010 0.012-0.022 0.022-0.035 0.030l-0.001 0c-0.014 0.008-0.030 0.013-0.048 0.013-0.003 0-0.006-0-0.008-0l0 0c-0.022-0.001-0.043-0.008-0.061-0.018l0.001 0-0.075-0.045-0.104-0.058c-0.037-0.018-0.083-0.037-0.131-0.053l-0.009-0.003c-0.052-0.017-0.115-0.033-0.18-0.044l-0.009-0.001c-0.069-0.012-0.148-0.018-0.229-0.018-0.006 0-0.013 0-0.019 0h0.001c-0.005-0-0.011-0-0.016-0-0.159 0-0.312 0.028-0.454 0.079l0.009-0.003c-0.136 0.048-0.26 0.121-0.361 0.213-0.104 0.098-0.183 0.214-0.235 0.339-0.054 0.128-0.085 0.277-0.085 0.433 0 0.005 0 0.010 0 0.015v-0.001c-0 0.005-0 0.011-0 0.017 0 0.158 0.031 0.308 0.088 0.445l-0.003-0.008c0.051 0.125 0.129 0.239 0.231 0.338 0.095 0.092 0.213 0.163 0.345 0.209 0.136 0.049 0.281 0.073 0.428 0.072 0.007 0 0.015 0 0.023 0 0.081 0 0.161-0.005 0.24-0.016l-0.009 0.001c0.143-0.015 0.273-0.058 0.389-0.124l-0.005 0.003c0.062-0.036 0.116-0.073 0.167-0.114l-0.002 0.002c0.021-0.017 0.049-0.028 0.079-0.029h0zM9.923 29.984c0 0.005 0 0.011 0 0.016 0 0.197-0.041 0.384-0.116 0.554l0.003-0.009c-0.068 0.163-0.174 0.311-0.313 0.436s-0.306 0.222-0.491 0.286c-0.189 0.064-0.406 0.101-0.632 0.101s-0.443-0.037-0.646-0.105l0.014 0.004c-0.184-0.065-0.35-0.163-0.488-0.287-0.138-0.127-0.246-0.277-0.316-0.44-0.15-0.363-0.15-0.761 0-1.125 0.071-0.164 0.178-0.314 0.316-0.442 0.139-0.12 0.305-0.214 0.488-0.276 0.188-0.065 0.406-0.103 0.631-0.103s0.443 0.038 0.646 0.107l-0.014-0.004c0.185 0.065 0.351 0.163 0.49 0.287 0.137 0.125 0.243 0.273 0.314 0.435 0.077 0.181 0.115 0.372 0.112 0.565zM9.487 29.984c0-0.007 0-0.015 0-0.023 0-0.154-0.029-0.301-0.082-0.436l0.003 0.008c-0.047-0.125-0.122-0.24-0.222-0.338-0.097-0.093-0.217-0.166-0.351-0.213-0.137-0.047-0.295-0.074-0.459-0.074s-0.322 0.027-0.469 0.077l0.010-0.003c-0.134 0.048-0.254 0.12-0.351 0.213-0.101 0.097-0.178 0.212-0.224 0.338-0.050 0.134-0.079 0.289-0.079 0.451s0.029 0.317 0.082 0.46l-0.003-0.009c0.047 0.125 0.123 0.24 0.224 0.338 0.098 0.092 0.217 0.164 0.351 0.211 0.137 0.046 0.295 0.072 0.459 0.072s0.322-0.026 0.47-0.075l-0.011 0.003c0.134-0.047 0.254-0.119 0.351-0.211 0.1-0.098 0.175-0.213 0.222-0.338 0.050-0.126 0.079-0.272 0.079-0.425 0-0.009-0-0.018-0-0.027l0 0.001zM13.197 30.457l0.044 0.101c0.017-0.036 0.031-0.069 0.048-0.101 0.018-0.039 0.036-0.072 0.056-0.103l-0.002 0.004 1.062-1.677c0.021-0.029 0.039-0.047 0.060-0.052s0.046-0.009 0.072-0.009c0.005 0 0.011 0 0.016 0l-0.001-0h0.314v2.727h-0.372v-2.090c-0.001-0.014-0.002-0.030-0.002-0.047s0.001-0.033 0.002-0.049l-0 0.002-1.068 1.7c-0.015 0.026-0.036 0.048-0.062 0.062l-0.001 0c-0.026 0.014-0.057 0.023-0.090 0.023-0.001 0-0.001 0-0.002 0h-0.060c-0.001 0-0.002 0-0.003 0-0.032 0-0.063-0.008-0.089-0.023l0.001 0c-0.027-0.014-0.048-0.036-0.062-0.062l-0-0.001-1.099-1.711v2.189h-0.359v-2.722h0.314c0.005-0 0.010-0 0.015-0 0.026 0 0.051 0.003 0.074 0.010l-0.002-0c0.025 0.011 0.045 0.029 0.058 0.052l0 0.001 1.084 1.678c0.020 0.028 0.038 0.060 0.053 0.094l0.001 0.004zM17.192 30.321v1.021h-0.415v-2.723h0.926c0.010-0 0.022-0 0.034-0 0.172 0 0.338 0.022 0.497 0.063l-0.014-0.003c0.134 0.033 0.259 0.091 0.366 0.17 0.092 0.074 0.163 0.165 0.208 0.267 0.049 0.111 0.073 0.229 0.071 0.348 0 0.003 0 0.007 0 0.010 0 0.123-0.028 0.239-0.079 0.342l0.002-0.005c-0.050 0.105-0.127 0.198-0.224 0.273-0.104 0.080-0.227 0.142-0.36 0.179l-0.007 0.002c-0.14 0.040-0.301 0.063-0.467 0.063-0.012 0-0.023-0-0.035-0l0.002 0zM17.192 30.029h0.503c0.109 0.001 0.218-0.013 0.322-0.042 0.089-0.026 0.167-0.066 0.234-0.119l-0.002 0.001c0.060-0.048 0.108-0.108 0.14-0.177l0.001-0.003c0.032-0.066 0.050-0.142 0.050-0.224 0-0.002 0-0.004-0-0.006v0c0.001-0.009 0.001-0.018 0.001-0.029 0-0.070-0.016-0.137-0.044-0.196l0.001 0.003c-0.035-0.074-0.084-0.136-0.144-0.185l-0.001-0.001c-0.159-0.108-0.358-0.16-0.559-0.146h-0.503zM22.776 31.347h-0.328c-0.002 0-0.004 0-0.006 0-0.032 0-0.061-0.009-0.086-0.026l0.001 0c-0.023-0.016-0.041-0.037-0.054-0.062l-0-0.001-0.282-0.659h-1.419l-0.293 0.659c-0.012 0.025-0.029 0.046-0.051 0.061l-0 0c-0.024 0.017-0.055 0.027-0.088 0.027-0.002 0-0.004-0-0.006-0h-0.328l1.246-2.727h0.432zM20.719 30.334h1.172l-0.494-1.11c-0.033-0.070-0.065-0.156-0.090-0.243l-0.003-0.013-0.048 0.143c-0.016 0.048-0.032 0.086-0.049 0.124l0.003-0.008zM24.57 28.632c0.025 0.012 0.046 0.028 0.062 0.048l0 0 1.818 2.056v-2.117h0.372v2.727h-0.208c-0.002 0-0.004 0-0.006 0-0.029 0-0.056-0.006-0.080-0.017l0.001 0c-0.026-0.013-0.048-0.030-0.066-0.050l-0-0-1.816-2.054c0.001 0.014 0.001 0.030 0.001 0.047s-0.001 0.033-0.002 0.049l0-0.002v2.027h-0.372v-2.727h0.22c0.001-0 0.003-0 0.005-0 0.025 0 0.049 0.005 0.071 0.013l-0.001-0zM29.884 30.262v1.083h-0.415v-1.083l-1.149-1.642h0.372c0.003-0 0.005-0 0.008-0 0.030 0 0.058 0.009 0.082 0.024l-0.001-0c0.022 0.017 0.041 0.037 0.055 0.060l0.001 0.001 0.719 1.059c0.029 0.045 0.054 0.087 0.075 0.126 0.017 0.031 0.034 0.069 0.049 0.108l0.003 0.007 0.054-0.117c0.023-0.048 0.047-0.089 0.073-0.128l-0.002 0.003 0.708-1.067c0.016-0.022 0.033-0.041 0.053-0.057l0.001-0c0.023-0.017 0.052-0.027 0.083-0.027 0.002 0 0.005 0 0.007 0h0.376zM12.991 24.043c0.181 0.020 0.364 0.036 0.548 0.050 2.803-1.089 5.174-2.872 6.817-5.126s2.485-4.878 2.421-7.546l-3.089-2.684c0.628 2.84 0.334 5.776-0.849 8.479s-3.208 5.067-5.849 6.827z"></path>
<path  d="M11.888 23.918l0.083 0.014c2.822-1.754 4.974-4.203 6.176-7.030s1.402-5.904 0.571-8.83l-4.4-3.823c1.78 3.142 2.496 6.659 2.066 10.14s-1.989 6.786-4.496 9.528zM26.81 14.573c-0.747 2.931-2.563 5.574-5.177 7.537-0.763 0.577-1.587 1.090-2.46 1.534 2.128-0.543 4.085-1.504 5.718-2.809s2.9-2.917 3.703-4.714z"></path>
<path  d="M26.11 14.141l-2.541-2.207c-0.049 2.517-0.872 4.976-2.385 7.123s-3.66 3.902-6.217 5.084h0.012c0.601-0 1.194-0.032 1.778-0.095l-0.073 0.006c2.39-0.848 4.502-2.196 6.147-3.926s2.771-3.785 3.278-5.985zM12.256 2.637l-3.031-2.637c-2.709 0.91-5.040 2.509-6.686 4.588s-2.531 4.542-2.54 7.066c0.010 2.789 1.090 5.495 3.070 7.69s4.745 3.754 7.859 4.43c2.78-2.943 4.407-6.579 4.646-10.38s-0.924-7.569-3.319-10.757zM33.112 13.735c-0.011-3.309-1.529-6.479-4.221-8.818s-6.342-3.658-10.15-3.668c-1.76-0.002-3.504 0.281-5.146 0.832l18.557 16.123c0.635-1.425 0.961-2.941 0.96-4.469z"></path>
</symbol>
<symbol id="icon-diagram" viewBox="0 0 32 32">
<path fill="#2196f3" style="fill: var(--color2, #2196f3)" d="M14.926 14.965h1.066v4.798h-1.066zM19.19 17.097h1.066v2.665h-1.066zM10.661 18.696h1.066v1.066h-1.066zM7.463 18.163h1.066v1.599h-1.066z"></path>
<path fill="#212121" style="fill: var(--color1, #212121)" d="M1.599 28.291h25.587c0.883 0 1.599-0.716 1.599-1.599v-2.132c0-0.883-0.716-1.599-1.599-1.599h-0.533v-13.293l3.028-2.868c0.703 0.346 1.553 0.136 2.013-0.499s0.396-1.508-0.152-2.068-1.42-0.644-2.065-0.198c-0.644 0.446-0.873 1.292-0.542 2.002l-2.281 2.163v-1.23c0-0.883-0.716-1.599-1.599-1.599h-21.322c-0.883 0-1.599 0.716-1.599 1.599v15.992h-0.533c-0.883 0-1.599 0.716-1.599 1.599v2.132c0 0.883 0.716 1.599 1.599 1.599zM30.384 4.837c0.294 0 0.533 0.239 0.533 0.533s-0.239 0.533-0.533 0.533c-0.294 0-0.533-0.239-0.533-0.533s0.239-0.533 0.533-0.533zM3.198 6.969c0-0.294 0.239-0.533 0.533-0.533h21.322c0.294 0 0.533 0.239 0.533 0.533v2.239l-1.066 1.013v-2.186c0-0.294-0.239-0.533-0.533-0.533h-19.19c-0.294 0-0.533 0.239-0.533 0.533v13.326c0 0.294 0.239 0.533 0.533 0.533h19.19c0.294 0 0.533-0.239 0.533-0.533v-9.674l1.066-1.010v12.284h-22.388zM7.996 13.899c-0.721-0.002-1.354 0.478-1.546 1.174s0.105 1.433 0.725 1.801c0.62 0.368 1.41 0.276 1.928-0.226l1.853 0.93c0.069 0.035 0.151 0.056 0.238 0.056 0.158 0 0.3-0.069 0.398-0.178l0-0.001 3.939-4.431 3.872 2.901c0.088 0.066 0.199 0.106 0.32 0.106 0.142 0 0.271-0.056 0.367-0.146l-0 0 3.365-3.188v8.131h-18.124v-12.26h18.124v2.66l-3.771 3.572-3.904-2.927c-0.222-0.166-0.534-0.135-0.718 0.072l-3.993 4.493-1.493-0.746c0.010-0.056 0.017-0.123 0.020-0.19l0-0.003c0-0.883-0.716-1.599-1.599-1.599zM8.529 15.498c0 0.294-0.239 0.533-0.533 0.533s-0.533-0.239-0.533-0.533c0-0.294 0.239-0.533 0.533-0.533s0.533 0.239 0.533 0.533zM11.727 24.027h5.331v0.533c0 0.294-0.239 0.533-0.533 0.533h-4.264c-0.294 0-0.533-0.239-0.533-0.533zM1.066 24.56c0-0.294 0.239-0.533 0.533-0.533h9.062v0.533c0 0.883 0.716 1.599 1.599 1.599h4.264c0.883 0 1.599-0.716 1.599-1.599v-0.533h9.062c0.294 0 0.533 0.239 0.533 0.533v2.132c0 0.294-0.239 0.533-0.533 0.533h-25.587c-0.294 0-0.533-0.239-0.533-0.533z"></path>
</symbol>
<symbol id="icon-envelope" viewBox="0 0 43 32">
<path  d="M38.667 0h-34.667c-2.205 0-4 1.794-4 3.999v23.992c0 2.205 1.794 3.999 4 3.999h34.667c2.206 0 4-1.794 4-3.999v-23.992c0-2.205-1.794-3.999-4-3.999zM38.667 2.666c0.181 0 0.353 0.037 0.511 0.103l-17.844 15.46-17.845-15.46c0.151-0.065 0.327-0.103 0.511-0.103h0zM38.667 29.323h-34.667c-0.736 0-1.333-0.597-1.333-1.333v-22.405l17.793 15.415c0.232 0.202 0.538 0.325 0.873 0.325 0 0 0.001 0 0.001 0h-0c0 0 0.001 0 0.001 0 0.335 0 0.64-0.123 0.874-0.327l-0.002 0.001 17.793-15.415v22.405c-0 0.736-0.597 1.333-1.333 1.333v0z"></path>
</symbol>
<symbol id="icon-facebook" viewBox="0 0 32 32">
<path  d="M21.329 5.313h2.921v-5.088c-0.504-0.069-2.237-0.225-4.256-0.225-4.212 0-7.097 2.649-7.097 7.519v4.481h-4.648v5.688h4.648v14.312h5.699v-14.311h4.46l0.708-5.688h-5.169v-3.919c0.001-1.644 0.444-2.769 2.735-2.769z"></path>
</symbol>
<symbol id="icon-foster_peters" viewBox="0 0 66 32">
<path  d="M10.26 9.68h-0.002c-1.872 0-3.389 1.348-3.389 3.012v0.002c0 1.663 1.517 3.012 3.389 3.012h0.002c1.872 0 3.389-1.348 3.389-3.012v-0.002c0-1.663-1.517-3.012-3.389-3.012zM35.274 8.717c-0.005-2.31-1.040-4.524-2.878-6.158s-4.329-2.554-6.929-2.559c-2.6 0.004-5.093 0.924-6.932 2.558s-2.874 3.849-2.88 6.16v12.74s19.616-1.942 19.619-12.738zM0 25.639c0.005 1.607 0.725 3.148 2.004 4.285s3.012 1.778 4.821 1.782c1.808-0.005 3.541-0.645 4.82-1.782s2-2.676 2.005-4.283v-8.865s-13.649 1.352-13.649 8.863zM6.825 27.227c-0.353 0-0.699-0.093-0.993-0.268s-0.523-0.423-0.658-0.713-0.171-0.61-0.102-0.918c0.069-0.308 0.239-0.591 0.489-0.813s0.568-0.373 0.915-0.435c0.347-0.061 0.706-0.030 1.033 0.090s0.606 0.324 0.802 0.585c0.196 0.261 0.301 0.568 0.301 0.882 0 0.001 0 0.002 0 0.004 0 0.22-0.049 0.428-0.138 0.615l0.004-0.009c-0.089 0.193-0.221 0.369-0.387 0.517s-0.363 0.266-0.581 0.346c-0.203 0.077-0.438 0.121-0.683 0.121-0.001 0-0.002 0-0.002 0h0zM19.302 24.383v3.329h-0.686v-3.329zM20.628 25.806v0.535h-1.514v-0.535zM20.788 24.383v0.537h-1.674v-0.537zM23.92 25.97v0.158q0 0.38-0.103 0.681t-0.29 0.514c-0.122 0.137-0.271 0.246-0.44 0.319l-0.008 0.003q-0.258 0.112-0.574 0.112-0.313 0-0.574-0.112c-0.176-0.077-0.326-0.186-0.447-0.321l-0.001-0.001q-0.19-0.213-0.295-0.514-0.103-0.302-0.103-0.681v-0.158q0-0.382 0.103-0.681 0.103-0.302 0.29-0.514c0.122-0.137 0.271-0.247 0.44-0.321l0.008-0.003q0.261-0.112 0.574-0.112 0.316 0 0.574 0.112 0.261 0.112 0.448 0.325 0.19 0.213 0.293 0.514 0.105 0.3 0.105 0.681zM23.228 26.128v-0.162q0-0.265-0.048-0.466t-0.142-0.338-0.229-0.206q-0.135-0.071-0.309-0.071t-0.309 0.071q-0.133 0.069-0.226 0.206-0.091 0.137-0.139 0.338t-0.048 0.466v0.162q0 0.263 0.048 0.466 0.048 0.201 0.142 0.341 0.094 0.137 0.229 0.208t0.309 0.071 0.309-0.071 0.226-0.208q0.091-0.14 0.139-0.341 0.048-0.203 0.048-0.466zM26.148 26.842q0-0.089-0.027-0.16-0.025-0.073-0.096-0.133-0.071-0.062-0.199-0.121t-0.332-0.123c-0.176-0.057-0.318-0.112-0.456-0.175l0.026 0.011q-0.201-0.091-0.357-0.213-0.153-0.124-0.242-0.286-0.087-0.162-0.087-0.377 0-0.208 0.091-0.377 0.091-0.172 0.256-0.293 0.165-0.124 0.389-0.19 0.226-0.066 0.496-0.066 0.368 0 0.642 0.133t0.425 0.364q0.153 0.231 0.153 0.528h-0.681q0-0.146-0.062-0.256-0.059-0.112-0.183-0.176-0.121-0.064-0.306-0.064-0.178 0-0.297 0.055-0.119 0.053-0.178 0.144-0.059 0.089-0.059 0.201 0 0.085 0.041 0.153 0.043 0.069 0.128 0.128t0.208 0.112 0.286 0.103q0.272 0.082 0.478 0.185 0.208 0.103 0.348 0.231t0.21 0.29 0.071 0.368q0 0.217-0.085 0.389t-0.245 0.29-0.382 0.181-0.496 0.062q-0.247 0-0.487-0.064-0.24-0.066-0.437-0.199c-0.128-0.088-0.233-0.201-0.308-0.334l-0.003-0.005q-0.117-0.206-0.117-0.487h0.688q0 0.155 0.048 0.263t0.135 0.174q0.089 0.066 0.21 0.096 0.123 0.030 0.27 0.030 0.178 0 0.293-0.050 0.117-0.050 0.171-0.139 0.057-0.089 0.057-0.201zM28.789 24.383v3.329h-0.684v-3.329zM29.813 24.383v0.537h-2.716v-0.537zM32.438 27.178v0.535h-1.772v-0.535zM30.89 24.383v3.329h-0.686v-3.329zM32.207 25.739v0.521h-1.541v-0.521zM32.436 24.383v0.537h-1.77v-0.537zM32.838 24.383h1.242q0.382 0 0.656 0.114 0.277 0.114 0.425 0.338t0.149 0.551q0 0.268-0.091 0.46c-0.060 0.128-0.146 0.234-0.252 0.316l-0.002 0.001q-0.162 0.126-0.382 0.201l-0.217 0.114h-1.079l-0.005-0.535h0.803q0.181 0 0.3-0.064t0.178-0.178q0.062-0.114 0.062-0.265 0-0.16-0.059-0.277t-0.181-0.178-0.304-0.062h-0.556v2.792h-0.686zM34.699 27.713l-0.759-1.484 0.725-0.005 0.768 1.457v0.032zM38.301 26.526h-0.848v-0.535h0.848q0.197 0 0.32-0.064 0.123-0.066 0.181-0.183t0.057-0.263q0-0.149-0.057-0.277t-0.181-0.206-0.32-0.078h-0.611v2.792h-0.686v-3.329h1.296q0.391 0 0.67 0.142 0.281 0.139 0.43 0.386t0.149 0.565q0 0.322-0.149 0.558t-0.43 0.364q-0.279 0.128-0.67 0.128zM42.257 27.178v0.535h-1.772v-0.535zM40.709 24.383v3.329h-0.686v-3.329zM42.026 25.739v0.521h-1.541v-0.521zM42.254 24.383v0.537h-1.77v-0.537zM44.191 24.383v3.329h-0.684v-3.329zM45.215 24.383v0.537h-2.716v-0.537zM47.84 27.178v0.535h-1.772v-0.535zM46.292 24.383v3.329h-0.686v-3.329zM47.61 25.739v0.521h-1.541v-0.521zM47.838 24.383v0.537h-1.77v-0.537zM48.241 24.383h1.242q0.382 0 0.656 0.114 0.277 0.114 0.425 0.338t0.149 0.551q0 0.268-0.091 0.46c-0.060 0.128-0.146 0.234-0.252 0.316l-0.002 0.001q-0.162 0.126-0.382 0.201l-0.217 0.114h-1.079l-0.005-0.535h0.803q0.181 0 0.3-0.064t0.178-0.178q0.062-0.114 0.062-0.265 0-0.16-0.059-0.277t-0.181-0.178-0.304-0.062h-0.556v2.792h-0.686zM50.102 27.713l-0.759-1.484 0.725-0.005 0.768 1.457v0.032zM52.974 26.842q0-0.089-0.027-0.16-0.025-0.073-0.096-0.133-0.071-0.062-0.199-0.121t-0.332-0.123c-0.176-0.057-0.318-0.112-0.456-0.175l0.026 0.011q-0.201-0.091-0.357-0.213-0.153-0.124-0.242-0.286-0.087-0.162-0.087-0.377 0-0.208 0.091-0.377 0.091-0.172 0.256-0.293 0.165-0.124 0.389-0.19 0.226-0.066 0.496-0.066 0.368 0 0.642 0.133t0.425 0.364q0.153 0.231 0.153 0.528h-0.681q0-0.146-0.062-0.256-0.059-0.112-0.183-0.176-0.121-0.064-0.306-0.064-0.178 0-0.297 0.055-0.119 0.053-0.178 0.144-0.059 0.089-0.059 0.201 0 0.085 0.041 0.153 0.043 0.069 0.128 0.128t0.208 0.112 0.286 0.103q0.272 0.082 0.478 0.185 0.208 0.103 0.348 0.231t0.21 0.29 0.071 0.368q0 0.217-0.085 0.389t-0.245 0.29-0.382 0.181-0.496 0.062q-0.247 0-0.487-0.064-0.24-0.066-0.437-0.199c-0.128-0.088-0.233-0.201-0.308-0.334l-0.003-0.005q-0.117-0.206-0.117-0.487h0.688q0 0.155 0.048 0.263t0.135 0.174q0.089 0.066 0.21 0.096 0.123 0.030 0.27 0.030 0.178 0 0.293-0.050 0.117-0.050 0.171-0.139 0.057-0.089 0.057-0.201z"></path>
</symbol>
<symbol id="icon-instagram" viewBox="0 0 32 32">
<path  d="M31.969 9.408c-0.075-1.7-0.35-2.869-0.744-3.882-0.406-1.075-1.032-2.038-1.851-2.838-0.78-0.792-1.724-1.419-2.778-1.826l-0.054-0.018c-1.019-0.394-2.182-0.669-3.882-0.744-1.713-0.081-2.257-0.1-6.601-0.1s-4.888 0.019-6.595 0.094c-1.7 0.075-2.869 0.35-3.882 0.744-1.075 0.406-2.038 1.031-2.838 1.85-0.792 0.78-1.419 1.724-1.826 2.778l-0.018 0.054c-0.394 1.019-0.669 2.181-0.744 3.882-0.081 1.713-0.1 2.257-0.1 6.602s0.019 4.888 0.094 6.595c0.075 1.7 0.35 2.869 0.744 3.882 0.427 1.11 1.056 2.057 1.849 2.837l0.001 0.001c0.78 0.792 1.724 1.419 2.778 1.826l0.054 0.018c1.019 0.394 2.182 0.669 3.882 0.744 1.706 0.075 2.25 0.094 6.595 0.094s4.888-0.019 6.595-0.094c1.7-0.075 2.869-0.35 3.882-0.744 2.157-0.85 3.832-2.525 4.663-4.627l0.019-0.055c0.394-1.019 0.669-2.182 0.744-3.882 0.075-1.707 0.094-2.251 0.094-6.595s-0.006-4.888-0.081-6.595zM29.087 22.473c-0.069 1.563-0.331 2.407-0.55 2.969-0.551 1.4-1.639 2.487-3.002 3.026l-0.036 0.013c-0.563 0.219-1.413 0.481-2.969 0.55-1.688 0.075-2.194 0.094-6.464 0.094s-4.782-0.019-6.464-0.094c-1.563-0.069-2.407-0.331-2.969-0.55-0.694-0.256-1.325-0.663-1.838-1.194-0.516-0.504-0.923-1.117-1.183-1.804l-0.011-0.034c-0.219-0.563-0.481-1.413-0.55-2.969-0.075-1.688-0.094-2.194-0.094-6.464s0.019-4.782 0.094-6.464c0.069-1.563 0.331-2.407 0.55-2.969 0.256-0.694 0.663-1.325 1.2-1.838 0.504-0.517 1.117-0.923 1.804-1.183l0.034-0.011c0.563-0.219 1.413-0.481 2.969-0.55 1.688-0.075 2.194-0.094 6.464-0.094 4.276 0 4.782 0.019 6.464 0.094 1.563 0.069 2.407 0.331 2.969 0.55 0.694 0.256 1.325 0.662 1.838 1.194 0.531 0.519 0.938 1.144 1.194 1.838 0.219 0.563 0.481 1.413 0.55 2.969 0.075 1.688 0.094 2.194 0.094 6.464s-0.019 4.77-0.094 6.458z"></path>
<path  d="M16.059 7.783c-4.538 0-8.22 3.682-8.22 8.22s3.682 8.22 8.22 8.22c4.539 0 8.22-3.682 8.22-8.22s-3.682-8.22-8.22-8.22zM16.059 21.335c-2.944 0-5.332-2.388-5.332-5.332s2.388-5.332 5.332-5.332c2.944 0 5.332 2.388 5.332 5.332s-2.388 5.332-5.332 5.332zM26.524 7.458c0 1.060-0.859 1.919-1.919 1.919s-1.919-0.859-1.919-1.919 0.859-1.919 1.919-1.919 1.919 0.859 1.919 1.919z"></path>
</symbol>
<symbol id="icon-linkedin" viewBox="0 0 32 32">
<path  d="M31.992 32v-0.001h0.008v-11.736c0-5.741-1.236-10.164-7.948-10.164-3.227 0-5.392 1.771-6.276 3.449h-0.093v-2.913h-6.364v21.364h6.627v-10.579c0-2.785 0.528-5.479 3.977-5.479 3.399 0 3.449 3.179 3.449 5.657v10.401zM0.528 10.636h6.635v21.364h-6.635zM3.843 0c-2.121 0-3.843 1.721-3.843 3.843s1.721 3.879 3.843 3.879 3.843-1.757 3.843-3.879c-0.001-2.121-1.723-3.843-3.843-3.843z"></path>
</symbol>
<symbol id="icon-tag_line" viewBox="0 0 68 32">
<path  d="M34.491 15.012c-0.322-0.429-0.476-0.936-0.44-1.446v-2.097q0-0.964 0.437-1.465t1.502-0.499q1.001 0 1.421 0.427c0.305 0.363 0.454 0.807 0.42 1.254v0.493h-1.193v-0.499c0.001-0.019 0.001-0.042 0.001-0.065 0-0.15-0.013-0.296-0.038-0.439l0.002 0.015c-0.017-0.111-0.077-0.213-0.17-0.29-0.123-0.083-0.277-0.124-0.432-0.113-0.163-0.011-0.326 0.032-0.455 0.12-0.104 0.086-0.173 0.198-0.198 0.32-0.030 0.143-0.047 0.308-0.047 0.476 0 0.015 0 0.030 0 0.044l-0-0.002v2.545c-0.019 0.245 0.034 0.491 0.153 0.715 0.059 0.076 0.142 0.136 0.238 0.173 0.070 0.028 0.151 0.044 0.236 0.044 0.025 0 0.050-0.001 0.075-0.004l-0.003 0c0.153 0.011 0.305-0.031 0.422-0.115 0.097-0.083 0.16-0.192 0.178-0.309 0.024-0.138 0.038-0.296 0.038-0.458 0-0.018-0-0.037-0.001-0.055l0 0.003v-0.516h1.193v0.471c0.034 0.467-0.111 0.93-0.413 1.318-0.274 0.311-0.741 0.467-1.428 0.467s-1.206-0.166-1.5-0.512zM39.46 15.033c-0.301-0.326-0.452-0.802-0.452-1.431v-2.206q0-0.934 0.452-1.414t1.512-0.478q1.053 0 1.505 0.478c0.301 0.32 0.455 0.791 0.455 1.414v2.206c0 0.623-0.153 1.101-0.46 1.429s-0.805 0.493-1.5 0.493c-0.694 0-1.208-0.166-1.512-0.491zM41.528 14.504c0.108-0.204 0.157-0.428 0.143-0.653v-2.7c0.014-0.22-0.035-0.44-0.141-0.64-0.060-0.077-0.145-0.138-0.244-0.176-0.069-0.027-0.149-0.043-0.233-0.043-0.029 0-0.057 0.002-0.085 0.005l0.003-0c-0.024-0.003-0.052-0.005-0.080-0.005-0.085 0-0.165 0.016-0.24 0.044l0.005-0.002c-0.099 0.038-0.184 0.098-0.245 0.175-0.109 0.2-0.158 0.42-0.143 0.64v2.713c-0.015 0.224 0.034 0.449 0.143 0.653 0.070 0.069 0.155 0.124 0.252 0.162s0.201 0.057 0.307 0.057c0.106 0 0.21-0.020 0.307-0.057 0.098-0.038 0.182-0.093 0.252-0.162l-0 0zM44.366 9.569h1.285l0.966 4.070 0.988-4.070h1.25l0.126 5.874h-0.924l-0.099-4.082-0.954 4.082h-0.741l-0.988-4.097-0.091 4.097h-0.934zM50.422 9.569h2.001q1.729 0 1.729 1.668 0 1.598-1.821 1.595h-0.682v2.611h-1.235zM52.132 12.079c0.122 0.013 0.246 0.004 0.363-0.028 0.121-0.033 0.227-0.087 0.318-0.159l-0.002 0.001c0.142-0.198 0.204-0.431 0.178-0.663 0.001-0.019 0.001-0.042 0.001-0.065 0-0.166-0.022-0.328-0.063-0.481l0.003 0.013c-0.019-0.062-0.051-0.116-0.091-0.162l0 0c-0.043-0.048-0.095-0.088-0.153-0.117l-0.003-0.001c-0.144-0.060-0.31-0.096-0.485-0.096-0.023 0-0.046 0.001-0.069 0.002l0.003-0h-0.479v1.755zM55.934 9.569h1.327l1.361 5.874h-1.151l-0.269-1.354h-1.184l-0.277 1.354h-1.169zM57.068 13.408l-0.462-2.466-0.462 2.466zM59.722 9.569h0.865l1.655 3.351v-3.351h1.025v5.874h-0.823l-1.665-3.498v3.498h-1.060zM65.669 13.203l-1.376-3.626h1.159l0.84 2.329 0.788-2.329h1.134l-1.359 3.626v2.24h-1.186zM36.398 18.011v0.307h-1.008v2.387h-0.423v-2.387h-1.013v-0.307zM39.558 20.705h-0.326c-0.003 0-0.006 0-0.009 0-0.031 0-0.060-0.010-0.083-0.026l0 0c-0.024-0.015-0.042-0.036-0.054-0.061l-0-0.001-0.292-0.64h-1.398l-0.292 0.64c-0.009 0.029-0.024 0.053-0.044 0.072l-0 0c-0.024 0.016-0.053 0.026-0.084 0.026-0.003 0-0.005-0-0.008-0h-0.326l1.235-2.694h0.43zM37.513 19.705h1.166l-0.494-1.096c-0.032-0.069-0.063-0.153-0.088-0.24l-0.003-0.014c-0.017 0.051-0.032 0.1-0.047 0.143l-0.044 0.113zM41.688 20.44q0.116 0.005 0.232 0c0.074-0.007 0.142-0.018 0.207-0.034l-0.009 0.002c0.071-0.015 0.131-0.032 0.189-0.052l-0.011 0.003c0.054-0.019 0.109-0.043 0.166-0.066v-0.606h-0.494c-0.002 0-0.003 0-0.005 0-0.011 0-0.022-0.002-0.032-0.005l0.001 0c-0.012-0.004-0.022-0.010-0.031-0.017l0 0c-0.008-0.006-0.014-0.013-0.019-0.022l-0-0c-0.004-0.007-0.006-0.016-0.006-0.025 0-0.001 0-0.002 0-0.002v0-0.207h0.959v1.032c-0.15 0.095-0.324 0.17-0.509 0.217l-0.013 0.003c-0.086 0.023-0.191 0.043-0.299 0.055l-0.010 0.001c-0.107 0.011-0.232 0.017-0.358 0.017-0.001 0-0.002 0-0.002 0h0c-0.005 0-0.010 0-0.015 0-0.218 0-0.426-0.037-0.621-0.104l0.013 0.004c-0.185-0.064-0.353-0.16-0.494-0.282-0.138-0.123-0.246-0.268-0.319-0.427s-0.114-0.346-0.114-0.541c0-0.006 0-0.012 0-0.018v0.001c-0-0.005-0-0.011-0-0.017 0-0.197 0.041-0.385 0.115-0.555l-0.004 0.009c0.071-0.16 0.18-0.305 0.319-0.427 0.141-0.121 0.309-0.216 0.494-0.279 0.19-0.064 0.41-0.1 0.637-0.1 0.009 0 0.017 0 0.026 0h-0.001c0.001 0 0.002 0 0.003 0 0.12 0 0.238 0.009 0.353 0.025l-0.013-0.002c0.111 0.016 0.211 0.040 0.306 0.072l-0.012-0.003c0.086 0.028 0.169 0.064 0.247 0.107 0.076 0.042 0.148 0.089 0.215 0.141l-0.119 0.166c-0.010 0.016-0.023 0.028-0.039 0.037l-0.001 0c-0.016 0.009-0.036 0.014-0.056 0.014h-0c-0.028-0.001-0.055-0.009-0.077-0.022l0.001 0c-0.050-0.024-0.090-0.045-0.128-0.068l0.007 0.004c-0.046-0.026-0.101-0.050-0.158-0.070l-0.008-0.002c-0.063-0.023-0.139-0.043-0.218-0.058l-0.010-0.002c-0.089-0.015-0.193-0.024-0.298-0.024-0.006 0-0.011 0-0.017 0h0.001c-0.005-0-0.010-0-0.015-0-0.165 0-0.324 0.027-0.472 0.078l0.010-0.003c-0.138 0.048-0.261 0.12-0.363 0.213-0.102 0.097-0.181 0.211-0.23 0.335-0.052 0.133-0.083 0.288-0.083 0.449s0.030 0.316 0.086 0.458l-0.003-0.009c0.054 0.127 0.138 0.242 0.247 0.339 0.101 0.092 0.224 0.165 0.361 0.213 0.157 0.047 0.324 0.065 0.489 0.053zM45.626 20.398h1.349v0.307h-1.762v-2.694h0.422zM48.379 20.705h-0.423v-2.694h0.423zM49.95 18.024c0.025 0.012 0.047 0.029 0.064 0.049l0 0 1.806 2.031c-0.001-0.014-0.002-0.031-0.002-0.048s0.001-0.034 0.002-0.050l-0 0.002v-2.007h0.368v2.705h-0.212c-0.004 0-0.009 0.001-0.014 0.001-0.028 0-0.054-0.006-0.078-0.016l0.001 0c-0.026-0.014-0.048-0.031-0.067-0.051l-0-0-1.804-2.029v2.095h-0.353v-2.694h0.22c0.025 0 0.049 0.005 0.071 0.013l-0.001-0zM55.299 18.011v0.297h-1.497v0.889h1.213v0.286h-1.213v0.919h1.497v0.297h-1.932v-2.688zM11.027 1.374l18.76 4.599v16.115l-18.76-4.597zM9.823 0v18.274l21.164 5.19v-18.271z"></path>
<path  d="M21.166 31.946l-21.166-5.194v-18.272l21.166 5.192z"></path>
<path  d="M10.174 1.167l18.515 4.541-7.874 6.8-18.518-4.543zM9.823 0l-9.823 8.481 21.166 5.192 9.821-8.481zM22.357 30.918l8.63-7.453-8.63-2.118z"></path>
</symbol>
<symbol id="icon-tagline_here" viewBox="0 0 25 32">
<path  d="M10.531 1.806h-0.084c-0.129-0.008-0.258-0.011-0.388-0.014h-0.28c-0.244 0-0.494 0.006-0.741 0.019-0.008-0.001-0.018-0.001-0.028-0.001s-0.020 0-0.029 0.001l0.001-0c-2.376 0.139-4.581 0.733-6.575 1.696l0.104-0.045-0.266 0.128v13.625l0.623-0.211c0.546-0.188 1.129-0.357 1.731-0.513 1.488-0.398 3.202-0.638 4.967-0.662l0.014-0v1.79c-0.235 0.002-0.464 0.008-0.692 0.020l0.037-0.002h-0.051c-1.399 0.079-2.71 0.289-3.971 0.619l0.139-0.031c-1.734 0.441-3.254 1.050-4.666 1.83l0.1-0.051v-17.475c1.379-0.82 2.974-1.488 4.663-1.921l0.127-0.028c1.353-0.364 2.908-0.576 4.511-0.582h0.267c0.314 0.008 0.621 0.022 0.909 0.044 0.829 0.060 1.597 0.187 2.34 0.378l-0.090-0.020v1.762c-0.628-0.154-1.373-0.271-2.134-0.326l-0.045-0.003-0.045-0.004c-0.152-0.013-0.304-0.026-0.446-0.026zM13.633 3.607c0.391 0.030 0.796 0.044 1.205 0.044 1.689-0.006 3.324-0.228 4.882-0.639l-0.135 0.030c1.734-0.443 3.253-1.052 4.665-1.832l-0.101 0.051v17.163c-1.379 0.819-2.975 1.487-4.665 1.921l-0.127 0.028c-1.353 0.362-2.908 0.574-4.511 0.581h-0.004c-0.033 0-0.072 0-0.111 0-1.177 0-2.319-0.147-3.409-0.425l0.095 0.021v-17.275c0.265 0.061 0.537 0.117 0.814 0.164 0.455 0.077 0.934 0.133 1.401 0.167zM22.367 3.74l-0.623 0.21c-0.376 0.138-0.954 0.315-1.539 0.474l-0.192 0.044c-1.551 0.415-3.332 0.657-5.169 0.663h-0.004c-0.406 0-0.78-0.011-1.141-0.034l-0.497-0.033v14.017l0.427 0.038c0.395 0.034 0.803 0.052 1.214 0.052 1.45-0.006 2.853-0.198 4.189-0.553l-0.115 0.026c1.221-0.31 2.281-0.701 3.285-1.188l-0.102 0.044 0.266-0.128z"></path>
<path  d="M1.684 25.977c-0.087-0.091-0.193-0.163-0.311-0.212l-0.006-0.002c-0.102-0.042-0.22-0.067-0.343-0.067-0.012 0-0.023 0-0.034 0.001l0.002-0c-0.004-0-0.009-0-0.014-0-0.139 0-0.272 0.028-0.393 0.078l0.007-0.003c-0.121 0.049-0.225 0.118-0.311 0.205v0c-0.086 0.087-0.154 0.191-0.199 0.307l-0.002 0.006c-0.045 0.111-0.072 0.24-0.072 0.375 0 0.004 0 0.008 0 0.012v-0.001 2.335c-0.006 0.165 0.026 0.328 0.092 0.479 0.058 0.123 0.136 0.227 0.232 0.312l0.001 0.001c0.093 0.079 0.203 0.135 0.321 0.166 0.113 0.032 0.231 0.048 0.349 0.049 0.002 0 0.006 0 0.008 0 0.134 0 0.26-0.030 0.374-0.084l-0.005 0.002c0.121-0.054 0.225-0.127 0.311-0.216l0-0c0.084-0.088 0.153-0.192 0.201-0.306l0.002-0.007c0.047-0.108 0.075-0.235 0.075-0.368 0-0.002 0-0.003 0-0.005v0-0.261h-0.61v0.208c0 0.004 0 0.009 0 0.014 0 0.070-0.013 0.137-0.037 0.198l0.001-0.004c-0.021 0.051-0.051 0.095-0.089 0.131l-0 0c-0.036 0.029-0.079 0.052-0.125 0.067l-0.003 0.001c-0.038 0.013-0.082 0.021-0.127 0.022h-0c-0.011 0.001-0.023 0.002-0.036 0.002-0.045 0-0.088-0.010-0.126-0.027l0.002 0.001c-0.051-0.023-0.094-0.057-0.126-0.1l-0.001-0.001c-0.051-0.082-0.081-0.182-0.081-0.289 0-0.008 0-0.017 0.001-0.025l-0 0.001v-2.177c-0-0.007-0-0.015-0-0.023 0-0.119 0.028-0.231 0.077-0.33l-0.002 0.004c0.032-0.049 0.076-0.088 0.127-0.113l0.002-0.001c0.039-0.019 0.084-0.030 0.132-0.030 0.013 0 0.026 0.001 0.039 0.002l-0.002-0c0.003-0 0.007-0 0.012-0 0.107 0 0.201 0.051 0.26 0.131l0.001 0.001c0.063 0.082 0.101 0.187 0.101 0.301 0 0.004-0 0.009-0 0.013v-0.001 0.202h0.604v-0.238c0-0.003 0-0.006 0-0.009 0-0.144-0.027-0.281-0.077-0.406l0.003 0.007c-0.048-0.128-0.117-0.237-0.204-0.329l0 0zM5.31 25.95c-0.186-0.158-0.429-0.255-0.694-0.257h-0c-0.131 0-0.256 0.025-0.372 0.068l0.007-0.002c-0.124 0.045-0.231 0.11-0.323 0.192l0.001-0.001c-0.099 0.090-0.179 0.198-0.234 0.321l-0.002 0.006c-0.056 0.127-0.089 0.275-0.089 0.431 0 0.007 0 0.015 0 0.022l-0-0.001v2.239c-0.004 0.158 0.026 0.314 0.089 0.459 0.055 0.12 0.136 0.227 0.237 0.313 0.093 0.087 0.203 0.154 0.322 0.197 0.117 0.043 0.24 0.065 0.364 0.066 0.131-0 0.256-0.024 0.372-0.068l-0.007 0.002c0.127-0.047 0.237-0.114 0.331-0.198l-0.001 0.001c0.096-0.086 0.173-0.19 0.228-0.307l0.002-0.006c0.056-0.127 0.089-0.274 0.089-0.43 0-0.010-0-0.020-0-0.030l0 0.002v-2.239c0-0.006 0-0.014 0-0.021 0-0.156-0.033-0.304-0.092-0.438l0.003 0.007c-0.057-0.128-0.135-0.236-0.23-0.327l-0-0zM5.025 28.969c0.001 0.010 0.001 0.022 0.001 0.034 0 0.114-0.047 0.216-0.123 0.289l-0 0c-0.077 0.065-0.178 0.105-0.287 0.105v0c-0.11-0-0.21-0.040-0.288-0.105l0.001 0.001c-0.076-0.073-0.123-0.176-0.123-0.289 0-0.012 0.001-0.024 0.002-0.036l-0 0.002v-2.239c-0.001-0.010-0.001-0.022-0.001-0.034 0-0.114 0.047-0.216 0.123-0.289l0-0c0.077-0.065 0.178-0.105 0.287-0.105h0c0.11 0 0.21 0.040 0.288 0.105l-0.001-0.001c0.076 0.073 0.123 0.176 0.123 0.29 0 0.012-0.001 0.024-0.002 0.036l0-0.002zM10.072 29.969v-4.239h-0.587l-0.771 2.244h-0.011l-0.777-2.244h-0.581v4.239h0.606v-2.579h0.011l0.593 1.823h0.302l0.598-1.823h0.011v2.579zM13.513 26.027c-0.091-0.102-0.207-0.182-0.337-0.23l-0.006-0.002c-0.124-0.042-0.267-0.066-0.415-0.066-0.008 0-0.017 0-0.025 0l0.001-0h-0.9v4.239h0.604v-1.656h0.311c0.188 0.009 0.376-0.031 0.545-0.116 0.139-0.078 0.251-0.188 0.329-0.32l0.002-0.004c0.067-0.106 0.115-0.23 0.138-0.363l0.001-0.006c0.021-0.134 0.033-0.288 0.033-0.444 0-0.013-0-0.026-0-0.040l0 0.002c0.001-0.021 0.001-0.046 0.001-0.070 0-0.19-0.022-0.375-0.063-0.552l0.003 0.016c-0.043-0.153-0.12-0.284-0.223-0.39l0 0zM13.201 27.319c-0.003 0.081-0.023 0.156-0.057 0.224l0.001-0.003c-0.035 0.065-0.089 0.117-0.154 0.148l-0.002 0.001c-0.074 0.034-0.161 0.054-0.253 0.054-0.011 0-0.022-0-0.033-0.001l0.002 0h-0.275v-1.441h0.311c0.009-0 0.019-0.001 0.029-0.001 0.088 0 0.172 0.020 0.247 0.055l-0.004-0.002c0.062 0.036 0.111 0.090 0.141 0.154l0.001 0.002c0.033 0.074 0.051 0.155 0.053 0.236v0.282c0 0.099 0.006 0.2 0 0.291zM16.374 25.73h-0.495l-0.934 4.239h0.604l0.177-0.911h0.823l0.177 0.911h0.604zM15.817 28.481l0.297-1.537h0.011l0.296 1.537zM20.277 28.284h-0.011l-0.912-2.554h-0.581v4.239h0.604v-2.549h0.012l0.923 2.549h0.568v-4.239h-0.604zM23.968 25.73l-0.486 1.685h-0.012l-0.486-1.685h-0.64l0.83 2.447v1.792h0.604v-1.792l0.83-2.447zM0 31.166h0.291v0.817h0.198v-0.817h0.29v-0.167h-0.778zM2.447 30.998l-0.381 0.984h0.21l0.081-0.224h0.392l0.084 0.224h0.215l-0.391-0.984zM2.416 31.593l0.134-0.365 0.134 0.365zM4.866 31.62h0.227v0.127c-0.063 0.051-0.145 0.082-0.233 0.083h-0c-0.004 0-0.009 0-0.014 0-0.079 0-0.149-0.037-0.195-0.094l-0-0c-0.046-0.066-0.074-0.147-0.074-0.235 0-0.008 0-0.015 0.001-0.022l-0 0.001c0-0.219 0.095-0.329 0.283-0.329 0.006-0.001 0.013-0.001 0.021-0.001 0.045 0 0.086 0.014 0.12 0.038l-0.001-0c0.040 0.029 0.070 0.070 0.082 0.118l0 0.001 0.195-0.038c-0.042-0.192-0.181-0.289-0.417-0.289-0.004-0-0.008-0-0.013-0-0.127 0-0.244 0.048-0.331 0.127l0-0c-0.048 0.048-0.087 0.106-0.111 0.17l-0.001 0.003c-0.019 0.050-0.031 0.108-0.031 0.169 0 0.013 0 0.026 0.002 0.038l-0-0.002c-0 0.007-0 0.015-0 0.023 0 0.132 0.048 0.254 0.127 0.347l-0.001-0.001c0.087 0.089 0.208 0.145 0.342 0.145 0.011 0 0.022-0 0.033-0.001l-0.001 0c0.005 0 0.011 0 0.016 0 0.155 0 0.296-0.060 0.401-0.157l-0 0v-0.388h-0.427zM7.337 30.998h-0.199v0.984h0.69v-0.167h-0.49zM9.426 30.998h-0.199v0.984h0.199zM11.469 31.656l-0.403-0.657h-0.193v0.984h0.185v-0.643l0.395 0.643h0.198v-0.984h-0.182zM13.315 31.549h0.49v-0.167h-0.49v-0.216h0.528v-0.167h-0.727v0.984h0.747v-0.167h-0.548zM17.792 31.387h-0.388v-0.388h-0.198v0.984h0.198v-0.43h0.388v0.43h0.198v-0.984h-0.198zM19.649 31.549h0.492v-0.167h-0.492v-0.216h0.529v-0.167h-0.727v0.984h0.746v-0.167h-0.548zM22.168 31.549c0.171-0.027 0.258-0.117 0.258-0.274 0.001-0.008 0.002-0.018 0.002-0.028 0-0.079-0.038-0.148-0.098-0.191l-0.001-0c-0.073-0.037-0.159-0.059-0.25-0.059-0.013 0-0.027 0-0.040 0.001l0.002-0h-0.417v0.984h0.198v-0.412h0.039c0.005-0 0.011-0 0.016-0 0.039 0 0.075 0.008 0.108 0.023l-0.002-0.001c0.029 0.018 0.053 0.042 0.070 0.071l0.001 0.001 0.215 0.313h0.237l-0.12-0.192c-0.054-0.096-0.128-0.175-0.215-0.235l-0.002-0.002zM21.969 31.413h-0.146v-0.247h0.156c0.012-0.001 0.027-0.002 0.042-0.002 0.057 0 0.112 0.009 0.163 0.026l-0.004-0.001c0.027 0.024 0.043 0.058 0.043 0.096 0 0.043-0.021 0.080-0.052 0.104l-0 0c-0.049 0.016-0.106 0.025-0.164 0.025-0.013 0-0.026-0-0.038-0.001l0.002 0zM24.067 31.549h0.49v-0.167h-0.49v-0.216h0.529v-0.167h-0.729v0.984h0.747v-0.167h-0.548z"></path>
</symbol>
<symbol id="icon-twitter" viewBox="0 0 32 32">
<path  d="M32 6.078c-1.19 0.522-2.458 0.868-3.78 1.036 1.36-0.812 2.398-2.088 2.886-3.626-1.268 0.756-2.668 1.29-4.16 1.588-1.204-1.282-2.92-2.076-4.792-2.076-3.632 0-6.556 2.948-6.556 6.562 0 0.52 0.044 1.020 0.152 1.496-5.454-0.266-10.28-2.88-13.522-6.862-0.566 0.982-0.898 2.106-0.898 3.316 0 2.272 1.17 4.286 2.914 5.452-1.054-0.020-2.088-0.326-2.964-0.808v0.072c0 3.188 2.274 5.836 5.256 6.446-0.534 0.146-1.116 0.216-1.72 0.216-0.42 0-0.844-0.024-1.242-0.112 0.85 2.598 3.262 4.508 6.13 4.57-2.214 1.744-5.044 2.798-8.12 2.798-0.005 0-0.010 0-0.015 0h0.001c-0.538 0-1.054-0.024-1.57-0.090 2.906 1.874 6.35 2.944 10.064 2.944 12.072 0 18.672-10 18.672-18.668 0-0.29-0.010-0.57-0.024-0.848 1.302-0.924 2.396-2.078 3.288-3.406z"></path>
</symbol>
<symbol id="icon-vector" viewBox="0 0 20 32">
<path  d="M17 0h-14c-1.654 0-3 1.345-3 2.999v25.991c0 1.654 1.346 2.999 3 2.999h14c1.654 0 3-1.345 3-2.999v-25.991c0-1.654-1.346-2.999-3-2.999zM3 1.999h14c0.552 0 1 0.448 1 1v20.993h-16v-20.993c0.001-0.552 0.448-0.999 1-1h0zM17 29.99h-14c-0.552-0-1-0.448-1-1v-2.999h16v2.999c-0 0.552-0.448 0.999-1 1h-0z"></path>
</symbol>
<symbol id="icon-ya_and_co" viewBox="0 0 28 32">
<path  d="M4.085 0l4.771 4.517-8.856-0.005v21.915h23.149v-8.379l4.766 4.512v-22.559zM22.939 17.517l-13.528-12.807h13.528zM18.739 23.221h-15.076v-14.739h1.066v13.741h14.010zM7.223 29.344l-0.557 1.147-0.557-1.147h-0.467l0.813 1.529v0.891h0.422v-0.891l0.811-1.529zM7.923 31.764l0.196-0.563h0.938l0.198 0.563h0.439l-0.916-2.42h-0.377l-0.914 2.42zM8.588 29.858l0.351 1.004h-0.701zM10.805 30.804c-0.057 0.085-0.091 0.19-0.091 0.304 0 0.001 0 0.003 0 0.004v-0q0 0.306 0.214 0.497 0.216 0.189 0.575 0.189t0.618-0.194l0.136 0.161h0.469l-0.356-0.421q0.209-0.286 0.209-0.733h-0.351q0 0.244-0.101 0.444l-0.467-0.552 0.165-0.12q0.175-0.126 0.251-0.253c0.048-0.079 0.076-0.174 0.076-0.276 0-0.001 0-0.003 0-0.004v0q0-0.229-0.17-0.384-0.168-0.156-0.432-0.156-0.293 0-0.465 0.166-0.173 0.165-0.173 0.449 0 0.116 0.055 0.241 0.056 0.125 0.198 0.303-0.269 0.193-0.361 0.334zM11.897 31.339q-0.178 0.136-0.382 0.136-0.181 0-0.289-0.105t-0.108-0.273q0-0.194 0.2-0.346l0.052-0.037zM11.463 30.267q-0.171-0.211-0.171-0.351 0-0.121 0.070-0.201t0.188-0.080q0.11 0 0.181 0.068 0.072 0.066 0.072 0.161 0 0.143-0.103 0.234l-0.052 0.042zM15.403 31.581q0.249-0.218 0.286-0.605h-0.419q-0.033 0.259-0.158 0.371t-0.372 0.111q-0.271 0-0.412-0.206-0.14-0.206-0.14-0.598v-0.214q0.003-0.387 0.15-0.587 0.148-0.201 0.422-0.201 0.236 0 0.357 0.116 0.123 0.115 0.153 0.376h0.419q-0.040-0.397-0.284-0.615t-0.645-0.218q-0.298 0-0.525 0.141-0.226 0.141-0.347 0.402t-0.121 0.603v0.226q0.005 0.334 0.125 0.587t0.339 0.391q0.221 0.136 0.51 0.136 0.414 0 0.663-0.216zM17.875 31.242q0.123-0.269 0.123-0.625v-0.135q-0.002-0.354-0.126-0.62-0.125-0.268-0.354-0.409-0.228-0.143-0.524-0.143t-0.525 0.145q-0.228 0.143-0.354 0.414-0.125 0.271-0.125 0.625v0.136q0.002 0.347 0.126 0.613 0.126 0.266 0.356 0.411 0.231 0.143 0.525 0.143 0.298 0 0.525-0.143 0.229-0.145 0.352-0.412zM17.424 29.874q0.153 0.214 0.153 0.617v0.126q0 0.409-0.151 0.622-0.149 0.213-0.429 0.213-0.276 0-0.432-0.218-0.155-0.218-0.155-0.617v-0.14q0.003-0.391 0.156-0.603 0.155-0.214 0.427-0.214 0.279 0 0.43 0.214z"></path>
</symbol>
<symbol id="x-button" viewBox="0 0 18 18">
<path d="M15 4.1079 13.8921 3 9.5 7.3921 5.1079 3 4 4.1079 8.3921 8.5 4 12.8921 5.1079 14 9.5 9.6079 13.8921 14 15 12.8921 10.6079 8.5z"/>
</symbol>
<symbol id="person-black" viewBox="0 0 18 18">
<path  d="M9 9c1.6575 0 3-1.3425 3-3s-1.3425-3-3-3-3 1.3425-3 3 1.3425 3 3 3m0 1.5c-2.0025 0-6 1.005-6 3v.75c0 .4125.3375.75.75.75h10.5c.4125 0 .75-.3375.75-.75v-.75c0-1.995-3.9975-3-6-3"/>
</symbol> 
<symbol id="email-black" viewBox="0 0 18 18">
<path  d="M15 3H3c-.825 0-1.4925.675-1.4925 1.5l-.0075 9c0 .825.675 1.5 1.5 1.5h12c.825 0 1.5-.675 1.5-1.5v-9c0-.825-.675-1.5-1.5-1.5m-.3 3.1875-5.3025 3.315c-.24.15-.555.15-.795 0L3.3 6.1875c-.1875-.12-.3-.3225-.3-.54 0-.5025.5475-.8025.975-.54L9 8.25l5.025-3.1425c.4275-.2625.975.0375.975.54 0 .2175-.1125.42-.3.54"/>
</symbol>
<symbol id="phone-black" viewBox="0 0 18 18">
<path  d="m13.996 11.1226-1.8381-.2099a1.44 1.44 0 0 0-1.1869.4125l-1.3315 1.3316c-2.048-1.0421-3.727-2.7138-4.769-4.7691l1.3387-1.3388a1.44 1.44 0 0 0 .4125-1.1868L6.412 3.5384a1.4484 1.4484 0 0 0-1.4402-1.281h-1.252c-.8177 0-1.498.6803-1.4473 1.498.3835 6.1803 5.3263 11.1158 11.4993 11.4994.8177.0506 1.498-.6296 1.498-1.4474v-1.2519c.0072-.731-.5428-1.3461-1.2737-1.4329"/>
</symbol>
<symbol id="vector" viewBox="0 0 12 9">
<path fill="#fff" stroke="#fff" stroke-width=".2" d="m10.4778.204.8818.8409.0752.0723-.0752.0722-7.5049 7.1592-.0683.0664-.0694-.0664-3.496-3.335-.0762-.0722.0771-.0723.8877-.8418.0694-.0644.0683.0654 2.5381 2.4209L10.3391.204l.0693-.0655z"/>
</symbol>
<symbol id="icon-send" viewBox="0 0 24 24">
<path fill="#fff" d="M24 0 0 13.4954l7.67 2.8397L19.5 5.2482l-8.9983 12.1354.0073.0028-.009-.0028v6.6083l4.3013-5.0164 5.4488 2.0174z"/>
</symbol>
</defs>
</svg>
